# xmcd
#
# Track frame offsets:
#	150
#	12783
#	28369
#	37491
#	51685
#	65254
#	79475
#	96634
#	115800
#	131288
#	150394
#	166732
#	179302
#	189169
#
# Disc length: 2564 seconds
#
# Revision: 1
# Processed by: cddbd v1.5PL3 Copyright (c) Steve Scherf et al.
# Submitted via: audiograbber 1.83.01
#
DISCID=be0a020e
DTITLE=Honky Tonk Pickers - Honky Tonk Man
DYEAR=1900
DGENRE=coun
TTITLE0=Honky Tonk Man
TTITLE1=Third Rate Romance
TTITLE2=A 11
TTITLE3=Old Pair Of Shoes
TTITLE4=Dance In The Morning Sun
TTITLE5=Don't Send Me No Angel
TTITLE6=Texas Boogie
TTITLE7=I Never Go Around Mirrors
TTITLE8=Above And Beyond
TTITLE9=Farewell Party
TTITLE10=That's What I Like About Texas
TTITLE11=My Shoes Keep Walking Back To You
TTITLE12=Wildcat
TTITLE13=Epilog: Ernie's Radio Repair Shop
EXTD=
EXTT0=
EXTT1=
EXTT2=
EXTT3=
EXTT4=
EXTT5=
EXTT6=
EXTT7=
EXTT8=
EXTT9=
EXTT10=
EXTT11=
EXTT12=
EXTT13=
PLAYORDER=
